# xmcd
#
# Track frame offsets:
# 182
# 13927
# 29140
# 37197
# 49812
# 70175
# 79957
# 87055
# 98910
# 115522
# 128620
# 142617
# 162020
#
# Disc length: 2354 seconds
#
#
# Revision: 0
# Processed by: cddbd v1.5.2PL0 Copyright (c) Steve Scherf et al.
# Submitted via: FreeRIP 2.945 
#
DISCID=a309300d
DTITLE=Lous Pegaillouns - Horda !
DYEAR=1995
DGENRE=Banda Basque Landaise
TTITLE0=Guadallajara
TTITLE1=Aguero
TTITLE2=Sasikoipatzu
TTITLE3=Salbatokero Ermitan
TTITLE4=Pena Cali
TTITLE5=A San Sebastian
TTITLE6=Eztakit
TTITLE7=Jota Eta Arin Arin
TTITLE8=Coralito
TTITLE9=Violetaren Martxa
TTITLE10=Altza Gastiak
TTITLE11=Pitito De La Gaou
TTITLE12=Paquito Chocolatero
EXTD=Banda Parentis en Born (France - French)
EXTT0=
EXTT1=
EXTT2=
EXTT3=
EXTT4=
EXTT5=
EXTT6=
EXTT7=
EXTT8=
EXTT9=
EXTT10=
EXTT11=
EXTT12=
PLAYORDER=
